<mxfile host="app.diagrams.net" agent="Mozilla/5.0 (Macintosh; Intel Mac OS X 10_15_7) AppleWebKit/605.1.15 (KHTML, like Gecko) Version/17.5 Safari/605.1.15" version="24.7.7">
  <diagram name="Sequence_Diagram" id="QqoT0_ACTPzk_iXEPpyG">
    <mxGraphModel dx="610" dy="517" grid="1" gridSize="10" guides="1" tooltips="1" connect="1" arrows="1" fold="1" page="1" pageScale="1" pageWidth="827" pageHeight="1169" math="0" shadow="0">
      <root>
        <mxCell id="0" />
        <mxCell id="1" parent="0" />
        <mxCell id="NxQNxxUCMg9JpCaYnrJb-1" value="Client" style="shape=umlLifeline;perimeter=lifelinePerimeter;whiteSpace=wrap;html=1;container=1;dropTarget=0;collapsible=0;recursiveResize=0;outlineConnect=0;portConstraint=eastwest;newEdgeStyle={&quot;curved&quot;:0,&quot;rounded&quot;:0};" vertex="1" parent="1">
          <mxGeometry x="80" y="80" width="100" height="420" as="geometry" />
        </mxCell>
        <mxCell id="NxQNxxUCMg9JpCaYnrJb-4" value="" style="html=1;points=[[0,0,0,0,5],[0,1,0,0,-5],[1,0,0,0,5],[1,1,0,0,-5]];perimeter=orthogonalPerimeter;outlineConnect=0;targetShapes=umlLifeline;portConstraint=eastwest;newEdgeStyle={&quot;curved&quot;:0,&quot;rounded&quot;:0};" vertex="1" parent="NxQNxxUCMg9JpCaYnrJb-1">
          <mxGeometry x="45" y="60" width="10" height="340" as="geometry" />
        </mxCell>
        <mxCell id="NxQNxxUCMg9JpCaYnrJb-3" value="Service" style="shape=umlLifeline;perimeter=lifelinePerimeter;whiteSpace=wrap;html=1;container=1;dropTarget=0;collapsible=0;recursiveResize=0;outlineConnect=0;portConstraint=eastwest;newEdgeStyle={&quot;curved&quot;:0,&quot;rounded&quot;:0};" vertex="1" parent="1">
          <mxGeometry x="480" y="80" width="100" height="420" as="geometry" />
        </mxCell>
        <mxCell id="NxQNxxUCMg9JpCaYnrJb-8" value="" style="html=1;points=[[0,0,0,0,5],[0,1,0,0,-5],[1,0,0,0,5],[1,1,0,0,-5]];perimeter=orthogonalPerimeter;outlineConnect=0;targetShapes=umlLifeline;portConstraint=eastwest;newEdgeStyle={&quot;curved&quot;:0,&quot;rounded&quot;:0};" vertex="1" parent="NxQNxxUCMg9JpCaYnrJb-3">
          <mxGeometry x="45" y="100" width="10" height="20" as="geometry" />
        </mxCell>
        <mxCell id="NxQNxxUCMg9JpCaYnrJb-2" value="Réessai" style="shape=umlLifeline;perimeter=lifelinePerimeter;whiteSpace=wrap;html=1;container=1;dropTarget=0;collapsible=0;recursiveResize=0;outlineConnect=0;portConstraint=eastwest;newEdgeStyle={&quot;curved&quot;:0,&quot;rounded&quot;:0};" vertex="1" parent="1">
          <mxGeometry x="280" y="80" width="100" height="420" as="geometry" />
        </mxCell>
        <mxCell id="NxQNxxUCMg9JpCaYnrJb-5" value="" style="html=1;points=[[0,0,0,0,5],[0,1,0,0,-5],[1,0,0,0,5],[1,1,0,0,-5]];perimeter=orthogonalPerimeter;outlineConnect=0;targetShapes=umlLifeline;portConstraint=eastwest;newEdgeStyle={&quot;curved&quot;:0,&quot;rounded&quot;:0};" vertex="1" parent="NxQNxxUCMg9JpCaYnrJb-2">
          <mxGeometry x="45" y="80" width="10" height="300" as="geometry" />
        </mxCell>
        <mxCell id="NxQNxxUCMg9JpCaYnrJb-14" value="" style="endArrow=classic;html=1;rounded=0;" edge="1" parent="NxQNxxUCMg9JpCaYnrJb-2" source="NxQNxxUCMg9JpCaYnrJb-5" target="NxQNxxUCMg9JpCaYnrJb-5">
          <mxGeometry width="50" height="50" relative="1" as="geometry">
            <mxPoint x="59.99857142857144" y="140" as="sourcePoint" />
            <mxPoint x="60" y="160" as="targetPoint" />
            <Array as="points">
              <mxPoint x="80" y="140" />
              <mxPoint x="80" y="160" />
            </Array>
          </mxGeometry>
        </mxCell>
        <mxCell id="NxQNxxUCMg9JpCaYnrJb-32" value="" style="endArrow=classic;html=1;rounded=0;" edge="1" parent="NxQNxxUCMg9JpCaYnrJb-2">
          <mxGeometry width="50" height="50" relative="1" as="geometry">
            <mxPoint x="55" y="340" as="sourcePoint" />
            <mxPoint x="250" y="340" as="targetPoint" />
          </mxGeometry>
        </mxCell>
        <mxCell id="NxQNxxUCMg9JpCaYnrJb-33" value="&amp;nbsp;Requête&amp;nbsp;" style="edgeLabel;html=1;align=center;verticalAlign=middle;resizable=0;points=[];" vertex="1" connectable="0" parent="NxQNxxUCMg9JpCaYnrJb-32">
          <mxGeometry x="-0.0226" relative="1" as="geometry">
            <mxPoint as="offset" />
          </mxGeometry>
        </mxCell>
        <mxCell id="NxQNxxUCMg9JpCaYnrJb-34" value="" style="endArrow=classic;html=1;rounded=0;" edge="1" parent="NxQNxxUCMg9JpCaYnrJb-2">
          <mxGeometry width="50" height="50" relative="1" as="geometry">
            <mxPoint x="249.5" y="360" as="sourcePoint" />
            <mxPoint x="55" y="360" as="targetPoint" />
          </mxGeometry>
        </mxCell>
        <mxCell id="NxQNxxUCMg9JpCaYnrJb-35" value="&amp;nbsp;Succès&amp;nbsp;" style="edgeLabel;html=1;align=center;verticalAlign=middle;resizable=0;points=[];" vertex="1" connectable="0" parent="NxQNxxUCMg9JpCaYnrJb-34">
          <mxGeometry x="0.004" relative="1" as="geometry">
            <mxPoint as="offset" />
          </mxGeometry>
        </mxCell>
        <mxCell id="NxQNxxUCMg9JpCaYnrJb-31" value="" style="html=1;points=[[0,0,0,0,5],[0,1,0,0,-5],[1,0,0,0,5],[1,1,0,0,-5]];perimeter=orthogonalPerimeter;outlineConnect=0;targetShapes=umlLifeline;portConstraint=eastwest;newEdgeStyle={&quot;curved&quot;:0,&quot;rounded&quot;:0};" vertex="1" parent="NxQNxxUCMg9JpCaYnrJb-2">
          <mxGeometry x="245" y="340" width="10" height="20" as="geometry" />
        </mxCell>
        <mxCell id="NxQNxxUCMg9JpCaYnrJb-6" value="" style="endArrow=classic;html=1;rounded=0;" edge="1" parent="1">
          <mxGeometry width="50" height="50" relative="1" as="geometry">
            <mxPoint x="135" y="160" as="sourcePoint" />
            <mxPoint x="329.5" y="160" as="targetPoint" />
          </mxGeometry>
        </mxCell>
        <mxCell id="NxQNxxUCMg9JpCaYnrJb-7" value="&amp;nbsp;Requête&amp;nbsp;" style="edgeLabel;html=1;align=center;verticalAlign=middle;resizable=0;points=[];" vertex="1" connectable="0" parent="NxQNxxUCMg9JpCaYnrJb-6">
          <mxGeometry x="-0.1157" y="2" relative="1" as="geometry">
            <mxPoint as="offset" />
          </mxGeometry>
        </mxCell>
        <mxCell id="NxQNxxUCMg9JpCaYnrJb-9" value="" style="endArrow=classic;html=1;rounded=0;" edge="1" parent="1" source="NxQNxxUCMg9JpCaYnrJb-5">
          <mxGeometry width="50" height="50" relative="1" as="geometry">
            <mxPoint x="340" y="180" as="sourcePoint" />
            <mxPoint x="530" y="180" as="targetPoint" />
          </mxGeometry>
        </mxCell>
        <mxCell id="NxQNxxUCMg9JpCaYnrJb-11" value="&amp;nbsp;Requête&amp;nbsp;" style="edgeLabel;html=1;align=center;verticalAlign=middle;resizable=0;points=[];" vertex="1" connectable="0" parent="NxQNxxUCMg9JpCaYnrJb-9">
          <mxGeometry x="-0.0226" relative="1" as="geometry">
            <mxPoint as="offset" />
          </mxGeometry>
        </mxCell>
        <mxCell id="NxQNxxUCMg9JpCaYnrJb-12" value="" style="endArrow=classic;html=1;rounded=0;" edge="1" parent="1">
          <mxGeometry width="50" height="50" relative="1" as="geometry">
            <mxPoint x="529.5" y="200" as="sourcePoint" />
            <mxPoint x="335" y="200" as="targetPoint" />
          </mxGeometry>
        </mxCell>
        <mxCell id="NxQNxxUCMg9JpCaYnrJb-13" value="&amp;nbsp;Erreur&amp;nbsp;" style="edgeLabel;html=1;align=center;verticalAlign=middle;resizable=0;points=[];" vertex="1" connectable="0" parent="NxQNxxUCMg9JpCaYnrJb-12">
          <mxGeometry x="0.004" relative="1" as="geometry">
            <mxPoint as="offset" />
          </mxGeometry>
        </mxCell>
        <mxCell id="NxQNxxUCMg9JpCaYnrJb-16" value="&lt;font style=&quot;font-size: 12px;&quot;&gt;n=0 (attendre 1000ms)&lt;/font&gt;" style="text;html=1;align=center;verticalAlign=middle;resizable=0;points=[];autosize=1;strokeColor=none;fillColor=none;" vertex="1" parent="1">
          <mxGeometry x="360" y="210" width="150" height="30" as="geometry" />
        </mxCell>
        <mxCell id="NxQNxxUCMg9JpCaYnrJb-17" value="" style="endArrow=classic;html=1;rounded=0;" edge="1" parent="1">
          <mxGeometry width="50" height="50" relative="1" as="geometry">
            <mxPoint x="335" y="300" as="sourcePoint" />
            <mxPoint x="335" y="320" as="targetPoint" />
            <Array as="points">
              <mxPoint x="360" y="300" />
              <mxPoint x="360" y="320" />
            </Array>
          </mxGeometry>
        </mxCell>
        <mxCell id="NxQNxxUCMg9JpCaYnrJb-18" value="" style="html=1;points=[[0,0,0,0,5],[0,1,0,0,-5],[1,0,0,0,5],[1,1,0,0,-5]];perimeter=orthogonalPerimeter;outlineConnect=0;targetShapes=umlLifeline;portConstraint=eastwest;newEdgeStyle={&quot;curved&quot;:0,&quot;rounded&quot;:0};" vertex="1" parent="1">
          <mxGeometry x="525" y="260" width="10" height="20" as="geometry" />
        </mxCell>
        <mxCell id="NxQNxxUCMg9JpCaYnrJb-19" value="" style="endArrow=classic;html=1;rounded=0;" edge="1" parent="1">
          <mxGeometry width="50" height="50" relative="1" as="geometry">
            <mxPoint x="335" y="260" as="sourcePoint" />
            <mxPoint x="530" y="260" as="targetPoint" />
          </mxGeometry>
        </mxCell>
        <mxCell id="NxQNxxUCMg9JpCaYnrJb-20" value="&amp;nbsp;Requête&amp;nbsp;" style="edgeLabel;html=1;align=center;verticalAlign=middle;resizable=0;points=[];" vertex="1" connectable="0" parent="NxQNxxUCMg9JpCaYnrJb-19">
          <mxGeometry x="-0.0226" relative="1" as="geometry">
            <mxPoint as="offset" />
          </mxGeometry>
        </mxCell>
        <mxCell id="NxQNxxUCMg9JpCaYnrJb-21" value="" style="endArrow=classic;html=1;rounded=0;" edge="1" parent="1">
          <mxGeometry width="50" height="50" relative="1" as="geometry">
            <mxPoint x="529.5" y="280" as="sourcePoint" />
            <mxPoint x="335" y="280" as="targetPoint" />
          </mxGeometry>
        </mxCell>
        <mxCell id="NxQNxxUCMg9JpCaYnrJb-22" value="&amp;nbsp;Erreur&amp;nbsp;" style="edgeLabel;html=1;align=center;verticalAlign=middle;resizable=0;points=[];" vertex="1" connectable="0" parent="NxQNxxUCMg9JpCaYnrJb-21">
          <mxGeometry x="0.004" relative="1" as="geometry">
            <mxPoint as="offset" />
          </mxGeometry>
        </mxCell>
        <mxCell id="NxQNxxUCMg9JpCaYnrJb-23" value="&lt;font style=&quot;font-size: 12px;&quot;&gt;n=1 (attendre 2123ms)&lt;/font&gt;" style="text;html=1;align=center;verticalAlign=middle;resizable=0;points=[];autosize=1;strokeColor=none;fillColor=none;" vertex="1" parent="1">
          <mxGeometry x="360" y="290" width="150" height="30" as="geometry" />
        </mxCell>
        <mxCell id="NxQNxxUCMg9JpCaYnrJb-24" value="" style="endArrow=classic;html=1;rounded=0;" edge="1" parent="1">
          <mxGeometry width="50" height="50" relative="1" as="geometry">
            <mxPoint x="335" y="380" as="sourcePoint" />
            <mxPoint x="335" y="400" as="targetPoint" />
            <Array as="points">
              <mxPoint x="360" y="380" />
              <mxPoint x="360" y="400" />
            </Array>
          </mxGeometry>
        </mxCell>
        <mxCell id="NxQNxxUCMg9JpCaYnrJb-25" value="" style="html=1;points=[[0,0,0,0,5],[0,1,0,0,-5],[1,0,0,0,5],[1,1,0,0,-5]];perimeter=orthogonalPerimeter;outlineConnect=0;targetShapes=umlLifeline;portConstraint=eastwest;newEdgeStyle={&quot;curved&quot;:0,&quot;rounded&quot;:0};" vertex="1" parent="1">
          <mxGeometry x="525" y="340" width="10" height="20" as="geometry" />
        </mxCell>
        <mxCell id="NxQNxxUCMg9JpCaYnrJb-26" value="" style="endArrow=classic;html=1;rounded=0;" edge="1" parent="1">
          <mxGeometry width="50" height="50" relative="1" as="geometry">
            <mxPoint x="335" y="340" as="sourcePoint" />
            <mxPoint x="530" y="340" as="targetPoint" />
          </mxGeometry>
        </mxCell>
        <mxCell id="NxQNxxUCMg9JpCaYnrJb-27" value="&amp;nbsp;Requête&amp;nbsp;" style="edgeLabel;html=1;align=center;verticalAlign=middle;resizable=0;points=[];" vertex="1" connectable="0" parent="NxQNxxUCMg9JpCaYnrJb-26">
          <mxGeometry x="-0.0226" relative="1" as="geometry">
            <mxPoint as="offset" />
          </mxGeometry>
        </mxCell>
        <mxCell id="NxQNxxUCMg9JpCaYnrJb-28" value="" style="endArrow=classic;html=1;rounded=0;" edge="1" parent="1">
          <mxGeometry width="50" height="50" relative="1" as="geometry">
            <mxPoint x="529.5" y="360" as="sourcePoint" />
            <mxPoint x="335" y="360" as="targetPoint" />
          </mxGeometry>
        </mxCell>
        <mxCell id="NxQNxxUCMg9JpCaYnrJb-29" value="&amp;nbsp;Erreur&amp;nbsp;" style="edgeLabel;html=1;align=center;verticalAlign=middle;resizable=0;points=[];" vertex="1" connectable="0" parent="NxQNxxUCMg9JpCaYnrJb-28">
          <mxGeometry x="0.004" relative="1" as="geometry">
            <mxPoint as="offset" />
          </mxGeometry>
        </mxCell>
        <mxCell id="NxQNxxUCMg9JpCaYnrJb-30" value="&lt;font style=&quot;font-size: 12px;&quot;&gt;n=2 (attendre 4501ms)&lt;/font&gt;" style="text;html=1;align=center;verticalAlign=middle;resizable=0;points=[];autosize=1;strokeColor=none;fillColor=none;" vertex="1" parent="1">
          <mxGeometry x="360" y="370" width="150" height="30" as="geometry" />
        </mxCell>
        <mxCell id="NxQNxxUCMg9JpCaYnrJb-37" value="" style="endArrow=classic;html=1;rounded=0;" edge="1" parent="1">
          <mxGeometry width="50" height="50" relative="1" as="geometry">
            <mxPoint x="324.5" y="460" as="sourcePoint" />
            <mxPoint x="140" y="460" as="targetPoint" />
          </mxGeometry>
        </mxCell>
        <mxCell id="NxQNxxUCMg9JpCaYnrJb-38" value="&amp;nbsp;Succès&amp;nbsp;" style="edgeLabel;html=1;align=center;verticalAlign=middle;resizable=0;points=[];" vertex="1" connectable="0" parent="NxQNxxUCMg9JpCaYnrJb-37">
          <mxGeometry x="0.004" relative="1" as="geometry">
            <mxPoint as="offset" />
          </mxGeometry>
        </mxCell>
      </root>
    </mxGraphModel>
  </diagram>
</mxfile>
